<?xml version="1.0" encoding="utf-8"?><svg viewBox="0 0 310 310" xmlns="http://www.w3.org/2000/svg" xmlns:xlink="http://www.w3.org/1999/xlink"><style>:root>svg{display:none}:root>svg:target{display:block}</style><svg viewBox="0 0 23.101 23.101" id="facebook-icon" xmlns="http://www.w3.org/2000/svg"><path d="M8.258 4.458c0-.144.02-.455.06-.931.043-.477.223-.976.546-1.5.32-.522.839-.991 1.561-1.406C11.144.208 12.183 0 13.539 0h3.82v4.163h-2.797c-.277 0-.535.104-.768.309-.231.205-.35.4-.35.581v2.59h3.914c-.041.507-.086 1-.138 1.476l-.155 1.258c-.062.425-.125.819-.187 1.182h-3.462v11.542H8.258V11.558H5.742V7.643h2.516V4.458z"/></svg><svg viewBox="0 0 20 20" id="pinterest-icon" xmlns="http://www.w3.org/2000/svg"><path d="M8.617 13.227C8.091 15.981 7.45 18.621 5.549 20c-.586-4.162.861-7.287 1.534-10.605-1.147-1.93.138-5.812 2.555-4.855 2.975 1.176-2.576 7.172 1.15 7.922 3.891.781 5.479-6.75 3.066-9.199C10.369-.275 3.708 3.18 4.528 8.245c.199 1.238 1.478 1.613.511 3.322-2.231-.494-2.897-2.254-2.811-4.6.138-3.84 3.449-6.527 6.771-6.9 4.201-.471 8.144 1.543 8.689 5.494.613 4.461-1.896 9.293-6.389 8.945-1.218-.095-1.728-.699-2.682-1.279z"/></svg><svg viewBox="0 0 310 310" id="twitter-icon" xmlns="http://www.w3.org/2000/svg"><path d="M302.973 57.388a117.512 117.512 0 01-14.993 5.463 66.276 66.276 0 0013.494-23.73 5 5 0 00-7.313-5.824 117.994 117.994 0 01-34.878 13.783c-12.381-12.098-29.197-18.983-46.581-18.983-36.695 0-66.549 29.853-66.549 66.547 0 2.89.183 5.764.545 8.598C101.163 99.244 58.83 76.863 29.76 41.204a5.001 5.001 0 00-8.196.642c-5.896 10.117-9.013 21.688-9.013 33.461 0 16.035 5.725 31.249 15.838 43.137a56.37 56.37 0 01-8.907-3.977 5 5 0 00-7.427 4.257c-.007.295-.007.59-.007.889 0 23.935 12.882 45.484 32.577 57.229a57.372 57.372 0 01-5.063-.735 4.998 4.998 0 00-5.699 6.437c7.29 22.76 26.059 39.501 48.749 44.605-18.819 11.787-40.34 17.961-62.932 17.961a120.4 120.4 0 01-14.095-.826 5 5 0 00-3.286 9.174c29.023 18.609 62.582 28.445 97.047 28.445 67.754 0 110.139-31.95 133.764-58.753 29.46-33.421 46.356-77.658 46.356-121.367 0-1.826-.028-3.67-.084-5.508 11.623-8.757 21.63-19.355 29.773-31.536a5 5 0 00-6.182-7.351z"/></svg><svg viewBox="0 0 299.999 299.999" id="vimeo-icon" xmlns="http://www.w3.org/2000/svg"><path d="M298.723 68.78c2.238-12.561 2.188-25.477-5.57-35.245-10.824-13.696-33.863-14.2-49.646-11.783-12.84 1.963-56.269 21.124-71.047 66.996 26.182-1.99 39.904 1.887 37.385 30.713-1.055 12.061-7.148 25.274-13.947 37.941-7.857 14.603-22.583 43.277-41.894 22.608-17.394-18.602-16.088-54.179-20.065-77.871-2.215-13.292-4.557-29.857-8.912-43.529-3.753-11.757-12.359-25.932-22.884-29.004-11.304-3.322-25.28 1.863-33.487 6.698C42.522 51.661 22.605 73.513 0 91.54c3.68 7.884 5.687 12.992 12.283 13.949 15.561 2.292 30.391-14.502 40.736 2.971 6.294 10.675 8.26 22.381 12.287 33.891 5.387 15.328 9.541 32.02 13.947 49.646 7.452 29.857 16.618 74.47 42.424 85.398 13.166 5.591 32.957-1.889 42.977-7.831 27.14-16.061 48.289-39.348 66.391-63.04 41.389-56.071 64.225-119.591 67.678-137.744z"/></svg></svg>